<?xml version="1.0" encoding="UTF-8"?>
<svg xmlns="http://www.w3.org/2000/svg" xmlns:xlink="http://www.w3.org/1999/xlink" width="32px" height="38px" viewBox="0 0 32 37" version="1.1">
<g id="surface1">
<path style=" stroke:none;fill-rule:nonzero;fill:rgb(27.843139%,83.92157%,87.843138%);fill-opacity:1;" d="M 0.652344 1.277344 C 4.648438 1.269531 8.644531 1.261719 12.640625 1.257812 C 14.496094 1.257812 16.351562 1.253906 18.207031 1.25 C 19.996094 1.25 21.785156 1.246094 23.574219 1.246094 C 24.257812 1.246094 24.945312 1.242188 25.628906 1.242188 C 26.582031 1.238281 27.539062 1.238281 28.492188 1.238281 C 28.921875 1.238281 28.921875 1.238281 29.359375 1.234375 C 31.308594 1.238281 31.308594 1.238281 31.671875 1.59375 C 32.019531 4.082031 32.320312 7.101562 31.097656 9.355469 C 30.355469 10.140625 29.582031 10.808594 28.734375 11.484375 C 28.304688 11.9375 27.878906 12.402344 27.46875 12.878906 C 27.296875 13.070312 27.121094 13.265625 26.941406 13.464844 C 26.425781 14.0625 25.945312 14.679688 25.46875 15.308594 C 25.792969 15.308594 26.117188 15.308594 26.449219 15.308594 C 27.167969 16.714844 26.835938 18.625 26.835938 20.1875 C 26.835938 20.890625 26.84375 21.59375 26.847656 22.296875 C 26.851562 22.742188 26.851562 23.1875 26.851562 23.632812 C 26.851562 24.039062 26.851562 24.445312 26.855469 24.867188 C 26.777344 25.835938 26.777344 25.835938 26.121094 26.472656 C 25.253906 26.65625 24.394531 26.710938 23.511719 26.792969 C 23.863281 26.804688 23.863281 26.804688 24.222656 26.816406 C 25.285156 26.855469 26.347656 26.894531 27.40625 26.933594 C 27.777344 26.945312 28.148438 26.957031 28.53125 26.96875 C 28.886719 26.984375 29.238281 26.996094 29.601562 27.011719 C 29.925781 27.023438 30.253906 27.035156 30.589844 27.046875 C 31.347656 27.113281 31.347656 27.113281 31.671875 27.429688 C 31.671875 29.957031 31.671875 32.484375 31.671875 35.085938 C 21.4375 35.085938 11.199219 35.085938 0.652344 35.085938 C 0.652344 28.070312 0.652344 28.070312 2.285156 26.15625 C 2.5 26.15625 2.714844 26.15625 2.9375 26.15625 C 3.011719 25.984375 3.085938 25.8125 3.164062 25.636719 C 3.59375 24.878906 3.59375 24.878906 4.417969 24.109375 C 5.65625 22.683594 5.46875 20.984375 5.46875 19.199219 C 5.480469 18.53125 5.492188 17.863281 5.503906 17.199219 C 5.507812 16.90625 5.507812 16.609375 5.511719 16.308594 C 5.550781 15.628906 5.550781 15.628906 5.878906 15.308594 C 6.421875 15.296875 6.964844 15.296875 7.511719 15.308594 C 7.503906 15 7.496094 14.691406 7.488281 14.375 C 7.511719 13.398438 7.511719 13.398438 7.835938 13.078125 C 8.484375 13.097656 9.128906 13.140625 9.777344 13.195312 C 10.304688 13.242188 10.304688 13.242188 10.84375 13.285156 C 11.753906 13.398438 11.753906 13.398438 12.40625 13.714844 C 12.40625 13.503906 12.40625 13.292969 12.40625 13.078125 C 12.625 13.078125 12.839844 13.078125 13.0625 13.078125 C 13.136719 12.90625 13.210938 12.734375 13.285156 12.558594 C 13.855469 11.554688 14.585938 10.765625 15.347656 9.886719 C 15.070312 9.882812 15.070312 9.882812 14.792969 9.878906 C 12.890625 9.84375 10.988281 9.808594 9.085938 9.769531 C 8.375 9.753906 7.667969 9.742188 6.957031 9.730469 C 5.9375 9.710938 4.917969 9.691406 3.898438 9.667969 C 3.578125 9.664062 3.261719 9.660156 2.929688 9.652344 C 2.636719 9.648438 2.34375 9.640625 2.039062 9.632812 C 1.777344 9.628906 1.519531 9.625 1.25 9.621094 C 0.652344 9.570312 0.652344 9.570312 0.328125 9.25 C 0.292969 8.714844 0.285156 8.175781 0.28125 7.636719 C 0.28125 7.308594 0.28125 6.980469 0.28125 6.644531 C 0.28125 6.300781 0.285156 5.957031 0.285156 5.601562 C 0.285156 5.257812 0.28125 4.914062 0.28125 4.5625 C 0.28125 4.234375 0.28125 3.90625 0.28125 3.570312 C 0.285156 3.269531 0.285156 2.964844 0.285156 2.65625 C 0.328125 1.914062 0.328125 1.914062 0.652344 1.277344 Z M 0.652344 1.277344 "/>
<path style=" stroke:none;fill-rule:nonzero;fill:rgb(84.705883%,25.098041%,56.078434%);fill-opacity:1;" d="M 26.449219 15.308594 C 27.167969 16.714844 26.835938 18.625 26.835938 20.1875 C 26.835938 20.890625 26.84375 21.59375 26.847656 22.296875 C 26.851562 22.742188 26.851562 23.1875 26.851562 23.632812 C 26.851562 24.039062 26.851562 24.445312 26.855469 24.867188 C 26.777344 25.835938 26.777344 25.835938 26.121094 26.472656 C 25.253906 26.65625 24.394531 26.710938 23.511719 26.792969 C 23.863281 26.804688 23.863281 26.804688 24.222656 26.816406 C 25.285156 26.855469 26.347656 26.894531 27.40625 26.933594 C 27.777344 26.945312 28.148438 26.957031 28.53125 26.96875 C 28.886719 26.984375 29.238281 26.996094 29.601562 27.011719 C 29.925781 27.023438 30.253906 27.035156 30.589844 27.046875 C 31.347656 27.113281 31.347656 27.113281 31.671875 27.429688 C 31.671875 29.957031 31.671875 32.484375 31.671875 35.085938 C 21.4375 35.085938 11.199219 35.085938 0.652344 35.085938 C 0.652344 28.070312 0.652344 28.070312 2.285156 26.15625 C 2.5 26.15625 2.714844 26.15625 2.9375 26.15625 C 3.011719 25.984375 3.085938 25.8125 3.164062 25.636719 C 3.59375 24.878906 3.59375 24.878906 4.417969 24.113281 C 5.65625 22.679688 5.480469 20.96875 5.488281 19.179688 C 5.496094 18.835938 5.507812 18.496094 5.515625 18.144531 C 5.535156 17.304688 5.546875 16.46875 5.550781 15.628906 C 5.660156 15.628906 5.765625 15.628906 5.878906 15.628906 C 5.984375 17.628906 6.09375 19.628906 6.203125 21.691406 C 6.417969 21.691406 6.636719 21.691406 6.855469 21.691406 C 6.964844 21.269531 7.074219 20.847656 7.183594 20.414062 C 7.507812 20.414062 7.832031 20.414062 8.164062 20.414062 C 8.554688 21.179688 8.523438 21.671875 8.511719 22.527344 C 8.507812 22.789062 8.503906 23.046875 8.5 23.316406 C 8.496094 23.515625 8.492188 23.714844 8.488281 23.921875 C 8.757812 23.894531 9.023438 23.871094 9.296875 23.84375 C 10.816406 23.949219 11.859375 24.503906 13.183594 25.199219 C 13.542969 25.378906 13.542969 25.378906 13.910156 25.566406 C 14.5 25.867188 15.085938 26.167969 15.671875 26.472656 C 15.671875 25 15.671875 23.527344 15.671875 22.007812 C 15.890625 22.007812 16.105469 22.007812 16.328125 22.007812 C 16.328125 23.480469 16.328125 24.957031 16.328125 26.472656 C 16.886719 26.171875 17.445312 25.867188 18.019531 25.558594 C 21.242188 23.8125 21.242188 23.8125 23.183594 23.921875 C 23.175781 23.589844 23.167969 23.253906 23.160156 22.910156 C 23.15625 22.46875 23.148438 22.03125 23.144531 21.589844 C 23.136719 21.371094 23.132812 21.148438 23.125 20.921875 C 23.113281 19.722656 23.136719 19.207031 23.835938 18.179688 C 23.957031 17.433594 24 16.691406 24.050781 15.9375 C 24.105469 15.625 24.105469 15.625 24.164062 15.308594 C 25.042969 14.878906 25.519531 15.054688 26.449219 15.308594 Z M 26.449219 15.308594 "/>
<path style=" stroke:none;fill-rule:nonzero;fill:rgb(60.784316%,63.137257%,76.078433%);fill-opacity:1;" d="M 0.652344 9.25 C 5.824219 9.25 10.996094 9.25 16.328125 9.25 C 15.019531 12.121094 15.019531 12.121094 14.367188 13.398438 C 14.464844 14.097656 14.464844 14.097656 14.695312 14.671875 C 15.234375 14.777344 15.769531 14.882812 16.328125 14.992188 C 16.433594 14.78125 16.542969 14.570312 16.652344 14.351562 C 17.398438 14.082031 17.398438 14.082031 18.304688 13.835938 C 18.605469 13.753906 18.90625 13.667969 19.214844 13.582031 C 19.449219 13.523438 19.679688 13.460938 19.917969 13.398438 C 19.917969 12.871094 19.917969 12.34375 19.917969 11.800781 C 20.242188 11.90625 20.566406 12.011719 20.898438 12.121094 C 20.789062 12.4375 20.683594 12.753906 20.570312 13.078125 C 21.003906 13.078125 21.433594 13.078125 21.878906 13.078125 C 21.984375 12.761719 22.09375 12.445312 22.203125 12.121094 C 22.417969 12.121094 22.636719 12.121094 22.855469 12.121094 C 22.964844 11.910156 23.074219 11.699219 23.183594 11.484375 C 23.371094 11.601562 23.5625 11.71875 23.753906 11.839844 C 24.476562 12.210938 24.476562 12.210938 25.121094 11.863281 C 25.34375 11.738281 25.566406 11.613281 25.796875 11.484375 C 26.070312 11.429688 26.347656 11.378906 26.632812 11.324219 C 27.507812 11.199219 27.507812 11.199219 28.40625 10.527344 C 28.570312 11 28.570312 11 28.734375 11.484375 C 27.730469 12.964844 26.3125 14.308594 24.816406 15.308594 C 24.601562 15.308594 24.386719 15.308594 24.164062 15.308594 C 24.171875 15.53125 24.179688 15.757812 24.1875 15.984375 C 24.191406 16.277344 24.199219 16.566406 24.203125 16.867188 C 24.210938 17.152344 24.21875 17.441406 24.226562 17.738281 C 24.164062 18.5 24.164062 18.5 23.511719 19.136719 C 23.410156 19.957031 23.34375 20.746094 23.304688 21.570312 C 23.292969 21.796875 23.28125 22.019531 23.269531 22.253906 C 23.238281 22.808594 23.210938 23.367188 23.183594 23.921875 C 22.898438 24 22.617188 24.078125 22.324219 24.15625 C 20.320312 24.726562 18.644531 25.242188 16.980469 26.472656 C 16.765625 26.472656 16.546875 26.472656 16.328125 26.472656 C 16.328125 25 16.328125 23.527344 16.328125 22.007812 C 16.109375 22.007812 15.894531 22.007812 15.671875 22.007812 C 15.671875 23.480469 15.671875 24.957031 15.671875 26.472656 C 14.308594 26.03125 13.320312 25.65625 12.101562 25 C 10.679688 24.28125 9.746094 24.074219 8.164062 24.242188 C 8.164062 22.976562 8.164062 21.714844 8.164062 20.414062 C 7.839844 20.414062 7.515625 20.414062 7.183594 20.414062 C 7.148438 20.664062 7.117188 20.914062 7.082031 21.171875 C 6.855469 22.007812 6.855469 22.007812 5.878906 22.648438 C 5.878906 20.226562 5.878906 17.804688 5.878906 15.308594 C 6.417969 15.308594 6.957031 15.308594 7.511719 15.308594 C 7.503906 15 7.496094 14.691406 7.488281 14.375 C 7.511719 13.398438 7.511719 13.398438 7.835938 13.078125 C 8.484375 13.097656 9.128906 13.140625 9.777344 13.195312 C 10.304688 13.242188 10.304688 13.242188 10.84375 13.285156 C 11.753906 13.398438 11.753906 13.398438 12.40625 13.714844 C 12.40625 13.503906 12.40625 13.292969 12.40625 13.078125 C 12.625 13.078125 12.839844 13.078125 13.0625 13.078125 C 13.136719 12.90625 13.210938 12.734375 13.285156 12.558594 C 13.714844 11.800781 13.714844 11.800781 15.347656 9.886719 C 10.496094 9.78125 5.648438 9.675781 0.652344 9.570312 C 0.652344 9.464844 0.652344 9.359375 0.652344 9.25 Z M 0.652344 9.25 "/>
<path style=" stroke:none;fill-rule:nonzero;fill:rgb(56.862748%,38.431373%,56.470591%);fill-opacity:1;" d="M 26.449219 15.308594 C 27.167969 16.714844 26.835938 18.625 26.835938 20.1875 C 26.835938 20.890625 26.84375 21.59375 26.847656 22.296875 C 26.851562 22.742188 26.851562 23.1875 26.851562 23.632812 C 26.851562 24.039062 26.851562 24.445312 26.855469 24.867188 C 26.777344 25.835938 26.777344 25.835938 26.121094 26.472656 C 24.722656 26.683594 23.320312 26.894531 21.878906 27.113281 C 26.402344 27.269531 26.402344 27.269531 31.019531 27.429688 C 31.019531 28.589844 31.019531 29.746094 31.019531 30.941406 C 30.914062 30.625 30.804688 30.308594 30.695312 29.984375 C 30.476562 29.984375 30.261719 29.984375 30.039062 29.984375 C 29.71875 29.351562 29.71875 29.351562 29.386719 28.707031 C 29.066406 29.023438 28.742188 29.339844 28.40625 29.664062 C 27.921875 29.347656 27.921875 29.347656 27.429688 29.027344 C 27.429688 28.605469 27.429688 28.183594 27.429688 27.75 C 27.117188 27.84375 26.808594 27.933594 26.488281 28.027344 C 24.675781 28.535156 22.789062 29.027344 20.898438 29.027344 C 20.460938 29.125 20.023438 29.226562 19.59375 29.34375 C 19.59375 28.921875 19.59375 28.503906 19.59375 28.070312 C 18.273438 28.011719 17.484375 28.101562 16.328125 28.707031 C 16.003906 28.550781 16.003906 28.550781 15.671875 28.386719 C 15.671875 28.703125 15.671875 29.019531 15.671875 29.34375 C 15.242188 29.34375 14.8125 29.34375 14.367188 29.34375 C 14.367188 28.820312 14.367188 28.292969 14.367188 27.75 C 13.613281 27.644531 12.859375 27.539062 12.082031 27.429688 C 11.972656 27.117188 11.867188 26.800781 11.753906 26.472656 C 10.699219 26.019531 9.894531 25.835938 8.734375 25.835938 C 8.4375 25.835938 8.140625 25.835938 7.835938 25.835938 C 7.621094 25.625 7.40625 25.414062 7.183594 25.199219 C 6.96875 25.621094 6.753906 26.039062 6.53125 26.472656 C 6.316406 26.054688 6.097656 25.632812 5.878906 25.199219 C 5.230469 25.355469 5.230469 25.355469 4.570312 25.515625 C 4.570312 25.9375 4.570312 26.359375 4.570312 26.792969 C 4.273438 26.859375 3.980469 26.925781 3.671875 26.992188 C 2.363281 27.535156 2.011719 28.167969 1.304688 29.34375 C 1.199219 29.34375 1.089844 29.34375 0.980469 29.34375 C 0.847656 28.222656 0.9375 27.8125 1.59375 26.851562 C 1.820312 26.621094 2.050781 26.390625 2.285156 26.15625 C 2.5 26.15625 2.714844 26.15625 2.9375 26.15625 C 3.011719 25.984375 3.085938 25.8125 3.164062 25.636719 C 3.59375 24.878906 3.59375 24.878906 4.417969 24.113281 C 5.65625 22.679688 5.480469 20.96875 5.488281 19.179688 C 5.496094 18.835938 5.507812 18.496094 5.515625 18.144531 C 5.535156 17.304688 5.546875 16.46875 5.550781 15.628906 C 5.660156 15.628906 5.765625 15.628906 5.878906 15.628906 C 5.984375 17.628906 6.09375 19.628906 6.203125 21.691406 C 6.417969 21.691406 6.636719 21.691406 6.855469 21.691406 C 6.964844 21.269531 7.074219 20.847656 7.183594 20.414062 C 7.507812 20.414062 7.832031 20.414062 8.164062 20.414062 C 8.554688 21.179688 8.523438 21.671875 8.511719 22.527344 C 8.507812 22.789062 8.503906 23.046875 8.5 23.316406 C 8.496094 23.515625 8.492188 23.714844 8.488281 23.921875 C 8.757812 23.894531 9.023438 23.871094 9.296875 23.84375 C 10.816406 23.949219 11.859375 24.503906 13.183594 25.199219 C 13.542969 25.378906 13.542969 25.378906 13.910156 25.566406 C 14.5 25.867188 15.085938 26.167969 15.671875 26.472656 C 15.671875 25 15.671875 23.527344 15.671875 22.007812 C 15.890625 22.007812 16.105469 22.007812 16.328125 22.007812 C 16.328125 23.480469 16.328125 24.957031 16.328125 26.472656 C 16.886719 26.171875 17.445312 25.867188 18.019531 25.558594 C 21.242188 23.8125 21.242188 23.8125 23.183594 23.921875 C 23.175781 23.589844 23.167969 23.253906 23.160156 22.910156 C 23.15625 22.46875 23.148438 22.03125 23.144531 21.589844 C 23.136719 21.371094 23.132812 21.148438 23.125 20.921875 C 23.113281 19.722656 23.136719 19.207031 23.835938 18.179688 C 23.957031 17.433594 24 16.691406 24.050781 15.9375 C 24.105469 15.625 24.105469 15.625 24.164062 15.308594 C 25.042969 14.878906 25.519531 15.054688 26.449219 15.308594 Z M 26.449219 15.308594 "/>
<path style=" stroke:none;fill-rule:nonzero;fill:rgb(96.470588%,95.686275%,98.431373%);fill-opacity:1;" d="M 8.816406 14.671875 C 12.503906 15.03125 12.503906 15.03125 13.714844 15.75 C 13.949219 15.882812 14.1875 16.015625 14.429688 16.15625 C 15.019531 16.585938 15.019531 16.585938 15.671875 17.542969 C 15.746094 18.472656 15.746094 18.472656 15.738281 19.589844 C 15.734375 19.988281 15.734375 20.390625 15.730469 20.800781 C 15.726562 21.21875 15.71875 21.636719 15.714844 22.070312 C 15.710938 22.496094 15.707031 22.921875 15.707031 23.347656 C 15.699219 24.390625 15.6875 25.429688 15.671875 26.472656 C 14.101562 25.976562 12.710938 25.355469 11.253906 24.597656 C 10.339844 24.15625 10.339844 24.15625 8.816406 23.921875 C 8.816406 20.871094 8.816406 17.816406 8.816406 14.671875 Z M 8.816406 14.671875 "/>
<path style=" stroke:none;fill-rule:nonzero;fill:rgb(95.686275%,94.117647%,98.431373%);fill-opacity:1;" d="M 23.183594 14.671875 C 23.183594 17.726562 23.183594 20.777344 23.183594 23.921875 C 21.082031 24.554688 21.082031 24.554688 18.9375 25.199219 C 17.597656 25.855469 17.597656 25.855469 16.652344 26.472656 C 16.589844 25.191406 16.539062 23.910156 16.507812 22.628906 C 16.496094 22.191406 16.480469 21.757812 16.457031 21.320312 C 16.273438 17.703125 16.273438 17.703125 17.214844 16.515625 C 17.882812 16.023438 18.511719 15.652344 19.265625 15.308594 C 19.542969 15.164062 19.816406 15.019531 20.101562 14.871094 C 20.898438 14.671875 20.898438 14.671875 23.183594 14.671875 Z M 23.183594 14.671875 "/>
<path style=" stroke:none;fill-rule:nonzero;fill:rgb(58.039218%,49.019608%,68.235296%);fill-opacity:1;" d="M 5.550781 15.628906 C 5.660156 15.628906 5.765625 15.628906 5.878906 15.628906 C 5.984375 17.628906 6.09375 19.628906 6.203125 21.691406 C 6.417969 21.691406 6.636719 21.691406 6.855469 21.691406 C 6.964844 21.269531 7.074219 20.847656 7.183594 20.414062 C 7.507812 20.414062 7.832031 20.414062 8.164062 20.414062 C 8.554688 21.179688 8.523438 21.671875 8.511719 22.527344 C 8.507812 22.789062 8.503906 23.046875 8.5 23.316406 C 8.496094 23.515625 8.492188 23.714844 8.488281 23.921875 C 8.757812 23.894531 9.023438 23.871094 9.296875 23.84375 C 10.816406 23.949219 11.859375 24.503906 13.183594 25.199219 C 13.425781 25.320312 13.664062 25.441406 13.910156 25.566406 C 14.5 25.867188 15.085938 26.167969 15.671875 26.472656 C 15.671875 25 15.671875 23.527344 15.671875 22.007812 C 15.890625 22.007812 16.105469 22.007812 16.328125 22.007812 C 16.328125 23.480469 16.328125 24.957031 16.328125 26.472656 C 16.886719 26.171875 17.445312 25.867188 18.019531 25.558594 C 21.242188 23.8125 21.242188 23.8125 23.183594 23.921875 C 23.175781 23.589844 23.167969 23.253906 23.160156 22.910156 C 23.15625 22.46875 23.148438 22.03125 23.144531 21.589844 C 23.136719 21.371094 23.132812 21.148438 23.125 20.921875 C 23.113281 19.722656 23.136719 19.207031 23.835938 18.179688 C 24.164062 18.5 24.164062 18.5 24.199219 19.09375 C 24.199219 19.472656 24.199219 19.472656 24.195312 19.855469 C 24.195312 20.265625 24.195312 20.265625 24.191406 20.683594 C 24.1875 21.113281 24.1875 21.113281 24.183594 21.550781 C 24.183594 21.835938 24.179688 22.125 24.179688 22.421875 C 24.175781 23.132812 24.171875 23.847656 24.164062 24.558594 C 23.941406 24.609375 23.71875 24.660156 23.492188 24.714844 C 19.976562 25.546875 19.976562 25.546875 16.980469 27.429688 C 15.34375 27.667969 14.402344 26.976562 13.0625 26.15625 C 13.0625 25.945312 13.0625 25.734375 13.0625 25.515625 C 11.769531 25.410156 10.476562 25.308594 9.144531 25.199219 C 9.359375 25.410156 9.574219 25.621094 9.796875 25.835938 C 8.855469 25.875 8.855469 25.875 7.835938 25.835938 C 7.621094 25.625 7.40625 25.414062 7.183594 25.199219 C 6.96875 25.621094 6.753906 26.039062 6.53125 26.472656 C 6.316406 26.054688 6.097656 25.632812 5.878906 25.199219 C 5.445312 25.304688 5.015625 25.410156 4.570312 25.515625 C 4.570312 25.9375 4.570312 26.359375 4.570312 26.792969 C 4.273438 26.859375 3.980469 26.925781 3.671875 26.992188 C 2.363281 27.535156 2.011719 28.167969 1.304688 29.34375 C 1.199219 29.34375 1.089844 29.34375 0.980469 29.34375 C 0.847656 28.222656 0.9375 27.8125 1.59375 26.851562 C 1.820312 26.621094 2.050781 26.390625 2.285156 26.15625 C 2.5 26.15625 2.714844 26.15625 2.9375 26.15625 C 3.011719 25.984375 3.085938 25.8125 3.164062 25.636719 C 3.59375 24.878906 3.59375 24.878906 4.417969 24.113281 C 5.65625 22.679688 5.480469 20.96875 5.488281 19.179688 C 5.496094 18.835938 5.507812 18.496094 5.515625 18.144531 C 5.535156 17.304688 5.546875 16.46875 5.550781 15.628906 Z M 5.550781 15.628906 "/>
<path style=" stroke:none;fill-rule:nonzero;fill:rgb(60.000002%,19.607843%,37.64706%);fill-opacity:1;" d="M 21.222656 27.113281 C 22.660156 27.105469 24.09375 27.097656 25.53125 27.09375 C 26.019531 27.09375 26.507812 27.089844 26.996094 27.089844 C 27.699219 27.085938 28.398438 27.082031 29.101562 27.082031 C 29.734375 27.078125 29.734375 27.078125 30.378906 27.074219 C 31.347656 27.113281 31.347656 27.113281 31.671875 27.429688 C 31.671875 29.957031 31.671875 32.484375 31.671875 35.085938 C 21.4375 35.085938 11.199219 35.085938 0.652344 35.085938 C 0.652344 32.769531 0.652344 30.453125 0.652344 28.070312 C 0.761719 28.070312 0.867188 28.070312 0.980469 28.070312 C 0.980469 30.28125 0.980469 32.488281 0.980469 34.765625 C 1.730469 34.757812 2.484375 34.746094 3.261719 34.738281 C 5.757812 34.707031 8.257812 34.675781 10.757812 34.640625 C 12.269531 34.625 13.78125 34.605469 15.296875 34.585938 C 16.757812 34.566406 18.222656 34.546875 19.683594 34.527344 C 20.242188 34.523438 20.796875 34.515625 21.351562 34.507812 C 24.25 34.46875 27.144531 34.4375 30.039062 34.449219 C 30.035156 34.09375 30.027344 33.738281 30.019531 33.371094 C 30.039062 32.214844 30.039062 32.214844 30.367188 31.578125 C 30.582031 31.578125 30.796875 31.578125 31.019531 31.578125 C 31.019531 30.210938 31.019531 28.839844 31.019531 27.429688 C 27.789062 27.429688 24.554688 27.429688 21.222656 27.429688 C 21.222656 27.324219 21.222656 27.21875 21.222656 27.113281 Z M 21.222656 27.113281 "/>
<path style=" stroke:none;fill-rule:nonzero;fill:rgb(46.666667%,69.01961%,81.568629%);fill-opacity:1;" d="M 7.835938 13.078125 C 8.496094 13.105469 9.15625 13.15625 9.816406 13.21875 C 10.355469 13.265625 10.355469 13.265625 10.910156 13.316406 C 11.1875 13.34375 11.46875 13.367188 11.753906 13.398438 C 11.753906 13.5 11.753906 13.605469 11.753906 13.714844 C 11.511719 13.761719 11.269531 13.808594 11.019531 13.855469 C 10.28125 14.003906 9.546875 14.175781 8.816406 14.351562 C 8.816406 17.511719 8.816406 20.667969 8.816406 23.921875 C 8.492188 24.082031 8.492188 24.082031 8.164062 24.242188 C 8.164062 22.976562 8.164062 21.714844 8.164062 20.414062 C 7.839844 20.414062 7.515625 20.414062 7.183594 20.414062 C 7.148438 20.664062 7.117188 20.914062 7.082031 21.171875 C 6.855469 22.007812 6.855469 22.007812 5.878906 22.648438 C 5.878906 20.226562 5.878906 17.804688 5.878906 15.308594 C 6.417969 15.308594 6.957031 15.308594 7.511719 15.308594 C 7.503906 15 7.496094 14.691406 7.488281 14.375 C 7.511719 13.398438 7.511719 13.398438 7.835938 13.078125 Z M 7.835938 13.078125 "/>
<path style=" stroke:none;fill-rule:nonzero;fill:rgb(13.725491%,51.372552%,49.019608%);fill-opacity:1;" d="M 0.652344 1.277344 C 4.648438 1.269531 8.644531 1.261719 12.640625 1.257812 C 14.496094 1.257812 16.351562 1.253906 18.207031 1.25 C 19.996094 1.25 21.785156 1.246094 23.574219 1.246094 C 24.257812 1.246094 24.945312 1.242188 25.628906 1.242188 C 26.582031 1.238281 27.539062 1.238281 28.492188 1.238281 C 28.921875 1.238281 28.921875 1.238281 29.359375 1.234375 C 31.308594 1.238281 31.308594 1.238281 31.671875 1.59375 C 31.996094 4.085938 32.308594 7.117188 31.089844 9.375 C 30.449219 10.058594 29.835938 10.632812 29.0625 11.164062 C 28.898438 10.691406 28.898438 10.691406 28.734375 10.207031 C 29.328125 9.191406 29.328125 9.191406 30.039062 8.292969 C 30.257812 8.292969 30.472656 8.292969 30.695312 8.292969 C 30.800781 6.082031 30.910156 3.871094 31.019531 1.59375 C 21.105469 1.59375 11.195312 1.59375 0.980469 1.59375 C 0.980469 2.753906 0.980469 3.910156 0.980469 5.101562 C 0.9375 5.867188 0.882812 6.632812 0.816406 7.394531 C 0.785156 7.75 0.753906 8.101562 0.722656 8.464844 C 0.699219 8.726562 0.675781 8.984375 0.652344 9.25 C 0.546875 9.25 0.4375 9.25 0.328125 9.25 C 0.316406 8.039062 0.3125 6.832031 0.304688 5.621094 C 0.304688 5.277344 0.300781 4.933594 0.296875 4.578125 C 0.296875 4.25 0.296875 3.917969 0.292969 3.582031 C 0.292969 3.277344 0.292969 2.972656 0.289062 2.660156 C 0.328125 1.914062 0.328125 1.914062 0.652344 1.277344 Z M 0.652344 1.277344 "/>
<path style=" stroke:none;fill-rule:nonzero;fill:rgb(30.980393%,92.54902%,90.588236%);fill-opacity:1;" d="M 0.980469 1.59375 C 10.894531 1.59375 20.804688 1.59375 31.019531 1.59375 C 31.019531 1.699219 31.019531 1.804688 31.019531 1.914062 C 30.050781 1.914062 29.082031 1.914062 28.082031 1.914062 C 28.082031 2.125 28.082031 2.335938 28.082031 2.550781 C 19.460938 2.550781 10.839844 2.550781 1.960938 2.550781 C 1.742188 3.5 1.527344 4.445312 1.304688 5.421875 C 1.199219 5.421875 1.089844 5.421875 0.980469 5.421875 C 0.980469 4.160156 0.980469 2.894531 0.980469 1.59375 Z M 0.980469 1.59375 "/>
<path style=" stroke:none;fill-rule:nonzero;fill:rgb(87.843138%,84.313726%,91.764706%);fill-opacity:1;" d="M 10.121094 15.949219 C 12.035156 16.09375 13.414062 16.917969 15.019531 17.863281 C 15.019531 18.074219 15.019531 18.28125 15.019531 18.5 C 14.695312 18.65625 14.695312 18.65625 14.367188 18.820312 C 14.582031 18.925781 14.796875 19.03125 15.019531 19.136719 C 15.128906 18.613281 15.234375 18.085938 15.347656 17.542969 C 15.453125 17.542969 15.5625 17.542969 15.671875 17.542969 C 15.671875 20.492188 15.671875 23.4375 15.671875 26.472656 C 15.457031 26.367188 15.242188 26.261719 15.019531 26.15625 C 15.019531 24.578125 15.019531 22.996094 15.019531 21.371094 C 14.589844 21.265625 14.160156 21.160156 13.714844 21.050781 C 13.324219 20.851562 12.945312 20.640625 12.570312 20.414062 C 11.761719 19.945312 11.0625 19.605469 10.121094 19.457031 C 9.703125 17.085938 9.703125 17.085938 10.121094 15.949219 Z M 10.121094 15.949219 "/>
<path style=" stroke:none;fill-rule:nonzero;fill:rgb(65.490198%,46.27451%,65.098041%);fill-opacity:1;" d="M 23.511719 18.179688 C 23.726562 18.285156 23.941406 18.390625 24.164062 18.5 C 24.164062 20.5 24.164062 22.5 24.164062 24.558594 C 23.636719 24.683594 23.113281 24.808594 22.570312 24.9375 C 20.734375 25.425781 18.367188 26.078125 16.980469 27.429688 C 15.34375 27.667969 14.402344 26.976562 13.0625 26.15625 C 13.0625 25.945312 13.0625 25.734375 13.0625 25.515625 C 12.722656 25.484375 12.386719 25.453125 12.039062 25.417969 C 10.792969 25.199219 9.914062 24.84375 8.816406 24.242188 C 8.816406 24.136719 8.816406 24.03125 8.816406 23.921875 C 10.625 24.082031 11.9375 24.546875 13.53125 25.378906 C 13.738281 25.484375 13.945312 25.585938 14.160156 25.695312 C 14.667969 25.953125 15.171875 26.214844 15.671875 26.472656 C 15.671875 25 15.671875 23.527344 15.671875 22.007812 C 15.890625 22.007812 16.105469 22.007812 16.328125 22.007812 C 16.328125 23.480469 16.328125 24.957031 16.328125 26.472656 C 16.886719 26.171875 17.445312 25.867188 18.019531 25.558594 C 21.242188 23.8125 21.242188 23.8125 23.183594 23.921875 C 23.179688 23.589844 23.175781 23.253906 23.171875 22.910156 C 23.167969 22.46875 23.167969 22.03125 23.164062 21.589844 C 23.160156 21.371094 23.15625 21.148438 23.15625 20.921875 C 23.148438 19.921875 23.183594 19.140625 23.511719 18.179688 Z M 23.511719 18.179688 "/>
<path style=" stroke:none;fill-rule:nonzero;fill:rgb(36.078432%,32.549021%,46.27451%);fill-opacity:1;" d="M 26.449219 15.308594 C 26.933594 16.257812 26.8125 17.117188 26.808594 18.171875 C 26.808594 18.390625 26.804688 18.609375 26.804688 18.835938 C 26.804688 19.535156 26.800781 20.234375 26.796875 20.933594 C 26.792969 21.40625 26.792969 21.878906 26.792969 22.351562 C 26.789062 23.515625 26.78125 24.675781 26.777344 25.835938 C 26.453125 25.992188 26.453125 25.992188 26.121094 26.15625 C 25.726562 22.597656 25.726562 19.1875 26.121094 15.628906 C 25.582031 15.628906 25.042969 15.628906 24.488281 15.628906 C 24.597656 15.839844 24.707031 16.050781 24.816406 16.265625 C 24.847656 16.910156 24.859375 17.558594 24.859375 18.203125 C 24.859375 18.585938 24.859375 18.972656 24.859375 19.367188 C 24.859375 19.773438 24.859375 20.175781 24.855469 20.59375 C 24.859375 21.199219 24.859375 21.199219 24.859375 21.820312 C 24.859375 22.207031 24.859375 22.589844 24.859375 22.988281 C 24.859375 23.339844 24.859375 23.695312 24.859375 24.0625 C 24.816406 24.878906 24.816406 24.878906 24.488281 25.199219 C 23.996094 25.300781 23.5 25.394531 23 25.476562 C 21.449219 25.765625 20.074219 26.210938 18.613281 26.792969 C 18.613281 26.582031 18.613281 26.371094 18.613281 26.15625 C 20.710938 25 21.519531 24.847656 24.164062 24.558594 C 24.164062 21.507812 24.164062 18.457031 24.164062 15.308594 C 25.042969 14.878906 25.519531 15.054688 26.449219 15.308594 Z M 26.449219 15.308594 "/>
<path style=" stroke:none;fill-rule:nonzero;fill:rgb(41.960785%,65.098041%,70.19608%);fill-opacity:1;" d="M 0.652344 9.25 C 5.824219 9.25 10.996094 9.25 16.328125 9.25 C 15.019531 12.121094 15.019531 12.121094 14.367188 13.398438 C 14.464844 14.097656 14.464844 14.097656 14.695312 14.671875 C 15.234375 14.777344 15.769531 14.882812 16.328125 14.992188 C 16.433594 14.78125 16.542969 14.570312 16.652344 14.351562 C 17.328125 14.222656 17.328125 14.222656 18.144531 14.152344 C 18.546875 14.117188 18.546875 14.117188 18.960938 14.082031 C 19.273438 14.058594 19.273438 14.058594 19.59375 14.035156 C 18.773438 14.863281 17.964844 15.625 16.980469 16.265625 C 16.765625 16.265625 16.546875 16.265625 16.328125 16.265625 C 16.328125 16.058594 16.328125 15.847656 16.328125 15.628906 C 16.058594 15.664062 15.789062 15.695312 15.511719 15.730469 C 13.957031 15.59375 13.003906 14.902344 11.753906 14.035156 C 11.96875 13.929688 12.1875 13.824219 12.40625 13.714844 C 12.40625 13.503906 12.40625 13.292969 12.40625 13.078125 C 12.625 13.078125 12.839844 13.078125 13.0625 13.078125 C 13.136719 12.90625 13.210938 12.734375 13.285156 12.558594 C 13.714844 11.800781 13.714844 11.800781 15.347656 9.886719 C 10.496094 9.78125 5.648438 9.675781 0.652344 9.570312 C 0.652344 9.464844 0.652344 9.359375 0.652344 9.25 Z M 0.652344 9.25 "/>
<path style=" stroke:none;fill-rule:nonzero;fill:rgb(75.686276%,35.686275%,62.352943%);fill-opacity:1;" d="M 20.246094 27.113281 C 20.136719 27.21875 20.03125 27.324219 19.917969 27.429688 C 23.582031 27.429688 27.246094 27.429688 31.019531 27.429688 C 31.019531 28.589844 31.019531 29.746094 31.019531 30.941406 C 30.859375 30.464844 30.859375 30.464844 30.695312 29.984375 C 30.476562 29.984375 30.261719 29.984375 30.039062 29.984375 C 29.824219 29.5625 29.609375 29.140625 29.386719 28.707031 C 29.066406 29.023438 28.742188 29.339844 28.40625 29.664062 C 28.085938 29.453125 27.761719 29.242188 27.429688 29.027344 C 27.429688 28.605469 27.429688 28.183594 27.429688 27.75 C 27.117188 27.84375 26.808594 27.933594 26.488281 28.027344 C 24.675781 28.535156 22.789062 29.027344 20.898438 29.027344 C 20.460938 29.125 20.023438 29.226562 19.59375 29.34375 C 19.59375 28.921875 19.59375 28.503906 19.59375 28.070312 C 19.054688 28.070312 18.515625 28.070312 17.960938 28.070312 C 17.851562 27.859375 17.742188 27.648438 17.632812 27.429688 C 19.144531 26.753906 19.144531 26.753906 20.246094 27.113281 Z M 20.246094 27.113281 "/>
<path style=" stroke:none;fill-rule:nonzero;fill:rgb(59.215689%,51.372552%,72.941178%);fill-opacity:1;" d="M 24.488281 15.628906 C 25.027344 15.628906 25.566406 15.628906 26.121094 15.628906 C 26.121094 19.101562 26.121094 22.578125 26.121094 26.15625 C 24.9375 26.15625 23.75 26.15625 22.53125 26.15625 C 22.636719 25.839844 22.746094 25.523438 22.855469 25.199219 C 23.394531 25.09375 23.933594 24.988281 24.488281 24.878906 C 24.488281 21.828125 24.488281 18.773438 24.488281 15.628906 Z M 24.488281 15.628906 "/>
<path style=" stroke:none;fill-rule:nonzero;fill:rgb(46.27451%,61.960787%,74.509805%);fill-opacity:1;" d="M 28.082031 10.527344 C 28.296875 10.839844 28.511719 11.15625 28.734375 11.484375 C 26.28125 14.332031 26.28125 14.332031 24.816406 15.308594 C 24.601562 15.308594 24.386719 15.308594 24.164062 15.308594 C 24.164062 16.363281 24.164062 17.414062 24.164062 18.5 C 23.949219 18.394531 23.730469 18.289062 23.511719 18.179688 C 23.5 17.730469 23.496094 17.277344 23.488281 16.824219 C 23.484375 16.574219 23.480469 16.320312 23.476562 16.0625 C 23.511719 15.308594 23.511719 15.308594 23.835938 14.035156 C 22.757812 13.929688 21.679688 13.824219 20.570312 13.714844 C 20.570312 13.609375 20.570312 13.503906 20.570312 13.398438 C 20.847656 13.367188 21.121094 13.335938 21.40625 13.300781 C 21.761719 13.253906 22.121094 13.207031 22.488281 13.15625 C 22.847656 13.113281 23.203125 13.070312 23.570312 13.023438 C 24.53125 12.851562 24.53125 12.851562 24.941406 12.097656 C 25.007812 11.894531 25.074219 11.691406 25.144531 11.484375 C 25.597656 11.511719 25.597656 11.511719 26.0625 11.542969 C 27.097656 11.582031 27.097656 11.582031 27.714844 11.003906 C 27.835938 10.847656 27.957031 10.6875 28.082031 10.527344 Z M 28.082031 10.527344 "/>
<path style=" stroke:none;fill-rule:nonzero;fill:rgb(41.568628%,78.431374%,83.137256%);fill-opacity:1;" d="M 0.652344 5.101562 C 0.761719 5.101562 0.867188 5.101562 0.980469 5.101562 C 1.085938 6.261719 1.195312 7.417969 1.304688 8.613281 C 6.371094 8.613281 11.433594 8.613281 16.652344 8.613281 C 16.867188 9.136719 17.085938 9.664062 17.304688 10.207031 C 16.855469 10.945312 16.855469 10.945312 16.328125 11.484375 C 16.003906 11.378906 15.679688 11.273438 15.347656 11.164062 C 15.5625 10.636719 15.777344 10.109375 16 9.570312 C 8.402344 9.410156 8.402344 9.410156 0.652344 9.25 C 0.652344 7.882812 0.652344 6.511719 0.652344 5.101562 Z M 0.652344 5.101562 "/>
<path style=" stroke:none;fill-rule:nonzero;fill:rgb(88.627452%,93.333334%,97.647059%);fill-opacity:1;" d="M 19.917969 15.308594 C 19.917969 15.625 19.917969 15.941406 19.917969 16.265625 C 20.566406 16.160156 21.210938 16.058594 21.878906 15.949219 C 21.878906 16.160156 21.878906 16.371094 21.878906 16.585938 C 21.660156 16.585938 21.445312 16.585938 21.222656 16.585938 C 21.222656 16.796875 21.222656 17.007812 21.222656 17.222656 C 21.441406 17.222656 21.65625 17.222656 21.878906 17.222656 C 21.878906 17.539062 21.878906 17.855469 21.878906 18.179688 C 21.683594 18.242188 21.492188 18.304688 21.292969 18.367188 C 19.945312 18.800781 18.613281 19.238281 17.304688 19.777344 C 17.414062 19.460938 17.523438 19.144531 17.632812 18.820312 C 17.308594 18.714844 16.984375 18.609375 16.652344 18.5 C 16.671875 17.800781 16.671875 17.800781 16.980469 16.90625 C 17.816406 16.144531 18.738281 15.308594 19.917969 15.308594 Z M 19.917969 15.308594 "/>
<path style=" stroke:none;fill-rule:nonzero;fill:rgb(83.529413%,82.745099%,87.843138%);fill-opacity:1;" d="M 21.878906 18.820312 C 21.878906 19.449219 21.878906 20.082031 21.878906 20.734375 C 21.011719 21.199219 20.605469 21.371094 19.59375 21.371094 C 19.59375 21.582031 19.59375 21.792969 19.59375 22.007812 C 20.722656 21.851562 20.722656 21.851562 21.878906 21.691406 C 21.878906 21.898438 21.878906 22.109375 21.878906 22.328125 C 18.804688 23.675781 18.804688 23.675781 17.304688 24.242188 C 17.304688 23.496094 17.304688 22.753906 17.304688 22.007812 C 18.121094 21.46875 18.121094 21.46875 18.9375 21.050781 C 18.398438 21.15625 17.859375 21.261719 17.304688 21.371094 C 17.753906 20.296875 18.15625 19.875 19.222656 19.378906 C 19.445312 19.269531 19.667969 19.164062 19.894531 19.054688 C 20.570312 18.820312 20.570312 18.820312 21.878906 18.820312 Z M 21.878906 18.820312 "/>
<path style=" stroke:none;fill-rule:nonzero;fill:rgb(45.09804%,68.235296%,81.568629%);fill-opacity:1;" d="M 22.855469 11.484375 C 23.652344 11.742188 23.652344 11.742188 24.488281 12.121094 C 24.597656 12.4375 24.707031 12.753906 24.816406 13.078125 C 23.953125 13.183594 23.09375 13.289062 22.203125 13.398438 C 22.851562 13.605469 23.496094 13.816406 24.164062 14.035156 C 23.949219 15.71875 23.730469 17.402344 23.511719 19.136719 C 23.402344 19.136719 23.292969 19.136719 23.183594 19.136719 C 23.183594 17.664062 23.183594 16.191406 23.183594 14.671875 C 22 14.882812 20.8125 15.09375 19.59375 15.308594 C 19.484375 14.785156 19.375 14.257812 19.265625 13.714844 C 19.480469 13.503906 19.695312 13.292969 19.917969 13.078125 C 19.917969 12.65625 19.917969 12.234375 19.917969 11.800781 C 20.242188 11.90625 20.566406 12.011719 20.898438 12.121094 C 20.789062 12.4375 20.683594 12.753906 20.570312 13.078125 C 21.003906 13.078125 21.433594 13.078125 21.878906 13.078125 C 21.984375 12.761719 22.09375 12.445312 22.203125 12.121094 C 22.417969 12.121094 22.636719 12.121094 22.855469 12.121094 C 22.855469 11.910156 22.855469 11.699219 22.855469 11.484375 Z M 22.855469 11.484375 "/>
<path style=" stroke:none;fill-rule:nonzero;fill:rgb(86.274511%,89.411765%,94.509804%);fill-opacity:1;" d="M 10.121094 15.949219 C 12.035156 16.09375 13.414062 16.917969 15.019531 17.863281 C 15.019531 18.074219 15.019531 18.28125 15.019531 18.5 C 14.695312 18.65625 14.695312 18.65625 14.367188 18.820312 C 14.476562 19.132812 14.582031 19.449219 14.695312 19.777344 C 13.917969 19.480469 13.160156 19.191406 12.429688 18.800781 C 11.566406 18.417969 10.730469 18.304688 9.796875 18.179688 C 9.902344 17.445312 10.011719 16.707031 10.121094 15.949219 Z M 10.121094 15.949219 "/>
<path style=" stroke:none;fill-rule:nonzero;fill:rgb(47.058824%,35.686275%,52.549022%);fill-opacity:1;" d="M 5.550781 15.628906 C 5.660156 15.628906 5.765625 15.628906 5.878906 15.628906 C 5.898438 16.976562 5.90625 18.328125 5.917969 19.675781 C 5.925781 20.25 5.925781 20.25 5.933594 20.835938 C 5.9375 21.203125 5.9375 21.574219 5.941406 21.953125 C 5.945312 22.292969 5.949219 22.628906 5.953125 22.980469 C 5.875 23.949219 5.644531 24.640625 5.222656 25.515625 C 5.007812 25.515625 4.792969 25.515625 4.570312 25.515625 C 4.570312 25.9375 4.570312 26.359375 4.570312 26.792969 C 4.273438 26.859375 3.980469 26.925781 3.671875 26.992188 C 2.363281 27.535156 2.011719 28.167969 1.304688 29.34375 C 1.199219 29.34375 1.089844 29.34375 0.980469 29.34375 C 0.847656 28.222656 0.9375 27.8125 1.59375 26.851562 C 1.820312 26.621094 2.050781 26.390625 2.285156 26.15625 C 2.5 26.15625 2.714844 26.15625 2.9375 26.15625 C 3.011719 25.984375 3.085938 25.8125 3.164062 25.636719 C 3.59375 24.878906 3.59375 24.878906 4.417969 24.113281 C 5.65625 22.679688 5.480469 20.96875 5.488281 19.179688 C 5.496094 18.835938 5.507812 18.496094 5.515625 18.144531 C 5.535156 17.304688 5.546875 16.46875 5.550781 15.628906 Z M 5.550781 15.628906 "/>
<path style=" stroke:none;fill-rule:nonzero;fill:rgb(92.54902%,88.627452%,94.509804%);fill-opacity:1;" d="M 9.796875 20.09375 C 11.054688 20.289062 12.035156 20.660156 13.164062 21.230469 C 13.453125 21.375 13.738281 21.519531 14.035156 21.671875 C 14.253906 21.78125 14.46875 21.894531 14.695312 22.007812 C 14.695312 22.746094 14.695312 23.480469 14.695312 24.242188 C 13.539062 23.804688 12.433594 23.3125 11.328125 22.765625 C 11.039062 22.625 10.75 22.480469 10.453125 22.335938 C 10.234375 22.226562 10.019531 22.121094 9.796875 22.007812 C 9.796875 21.378906 9.796875 20.746094 9.796875 20.09375 Z M 9.796875 20.09375 "/>
<path style=" stroke:none;fill-rule:nonzero;fill:rgb(86.274511%,90.980393%,96.078432%);fill-opacity:1;" d="M 8.816406 14.671875 C 12.503906 15.03125 12.503906 15.03125 13.734375 15.769531 C 13.972656 15.90625 14.214844 16.042969 14.460938 16.1875 C 15.019531 16.585938 15.019531 16.585938 15.347656 17.222656 C 15.371094 17.714844 15.375 18.207031 15.367188 18.699219 C 15.363281 18.960938 15.363281 19.222656 15.359375 19.488281 C 15.355469 19.6875 15.351562 19.890625 15.347656 20.09375 C 15.238281 19.777344 15.132812 19.464844 15.019531 19.136719 C 14.695312 19.03125 14.375 18.925781 14.039062 18.820312 C 14.363281 18.714844 14.6875 18.609375 15.019531 18.5 C 14.269531 17.671875 13.550781 17.273438 12.511719 16.84375 C 12.246094 16.734375 11.980469 16.625 11.710938 16.511719 C 11.410156 16.390625 11.410156 16.390625 11.101562 16.265625 C 11.210938 15.953125 11.316406 15.636719 11.429688 15.308594 C 10.675781 15.207031 9.921875 15.101562 9.144531 14.992188 C 9.144531 17.9375 9.144531 20.886719 9.144531 23.921875 C 9.035156 23.921875 8.925781 23.921875 8.816406 23.921875 C 8.816406 20.871094 8.816406 17.816406 8.816406 14.671875 Z M 8.816406 14.671875 "/>
<path style=" stroke:none;fill-rule:nonzero;fill:rgb(69.01961%,34.901962%,60.784316%);fill-opacity:1;" d="M 8.488281 24.878906 C 10.183594 24.8125 11.46875 25.007812 13.0625 25.515625 C 13.0625 25.726562 13.0625 25.9375 13.0625 26.15625 C 13.351562 26.246094 13.640625 26.339844 13.9375 26.433594 C 14.859375 26.738281 15.753906 27.070312 16.652344 27.429688 C 16.222656 27.535156 15.792969 27.640625 15.347656 27.75 C 15.453125 28.277344 15.5625 28.800781 15.671875 29.34375 C 15.242188 29.34375 14.8125 29.34375 14.367188 29.34375 C 14.367188 28.820312 14.367188 28.292969 14.367188 27.75 C 13.613281 27.644531 12.859375 27.539062 12.082031 27.429688 C 11.972656 27.117188 11.867188 26.800781 11.753906 26.472656 C 10.996094 26.078125 10.996094 26.078125 10.101562 25.777344 C 9.800781 25.667969 9.5 25.558594 9.191406 25.445312 C 8.960938 25.363281 8.730469 25.28125 8.488281 25.199219 C 8.488281 25.09375 8.488281 24.988281 8.488281 24.878906 Z M 8.488281 24.878906 "/>
<path style=" stroke:none;fill-rule:nonzero;fill:rgb(55.686277%,54.901963%,74.509805%);fill-opacity:1;" d="M 5.878906 17.863281 C 5.984375 18.179688 6.09375 18.492188 6.203125 18.820312 C 6.851562 18.714844 7.496094 18.609375 8.164062 18.5 C 8.164062 18.710938 8.164062 18.921875 8.164062 19.136719 C 8.378906 19.136719 8.59375 19.136719 8.816406 19.136719 C 8.816406 20.71875 8.816406 22.296875 8.816406 23.921875 C 8.601562 24.027344 8.386719 24.132812 8.164062 24.242188 C 8.164062 22.976562 8.164062 21.714844 8.164062 20.414062 C 7.839844 20.414062 7.515625 20.414062 7.183594 20.414062 C 7.148438 20.664062 7.117188 20.914062 7.082031 21.171875 C 6.855469 22.007812 6.855469 22.007812 5.878906 22.648438 C 5.878906 21.066406 5.878906 19.488281 5.878906 17.863281 Z M 5.878906 17.863281 "/>
<path style=" stroke:none;fill-rule:nonzero;fill:rgb(61.960787%,54.901963%,70.19608%);fill-opacity:1;" d="M 23.511719 18.179688 C 23.726562 18.285156 23.941406 18.390625 24.164062 18.5 C 24.164062 20.5 24.164062 22.5 24.164062 24.558594 C 22.332031 24.875 20.5 25.191406 18.613281 25.515625 C 19.027344 24.707031 19.3125 24.671875 20.164062 24.359375 C 20.492188 24.238281 20.492188 24.238281 20.832031 24.109375 C 21.640625 23.898438 22.351562 23.890625 23.183594 23.921875 C 23.179688 23.589844 23.175781 23.253906 23.171875 22.910156 C 23.167969 22.46875 23.167969 22.03125 23.164062 21.589844 C 23.160156 21.371094 23.15625 21.148438 23.15625 20.921875 C 23.148438 19.921875 23.183594 19.140625 23.511719 18.179688 Z M 23.511719 18.179688 "/>
<path style=" stroke:none;fill-rule:nonzero;fill:rgb(27.450982%,60.392159%,63.921571%);fill-opacity:1;" d="M 31.019531 1.59375 C 31.234375 1.59375 31.453125 1.59375 31.671875 1.59375 C 32.101562 7.492188 32.101562 7.492188 31.09375 9.378906 C 30.453125 10.058594 29.835938 10.632812 29.0625 11.164062 C 28.953125 10.847656 28.847656 10.53125 28.734375 10.207031 C 29.328125 9.191406 29.328125 9.191406 30.039062 8.292969 C 30.257812 8.292969 30.472656 8.292969 30.695312 8.292969 C 30.800781 6.082031 30.910156 3.871094 31.019531 1.59375 Z M 31.019531 1.59375 "/>
<path style=" stroke:none;fill-rule:nonzero;fill:rgb(45.09804%,60.392159%,76.47059%);fill-opacity:1;" d="M 12.734375 13.398438 C 13.164062 13.398438 13.597656 13.398438 14.039062 13.398438 C 14.113281 13.601562 14.1875 13.804688 14.265625 14.015625 C 14.644531 14.757812 14.644531 14.757812 15.550781 14.910156 C 15.808594 14.9375 16.0625 14.964844 16.328125 14.992188 C 16.433594 14.78125 16.542969 14.570312 16.652344 14.351562 C 17.328125 14.222656 17.328125 14.222656 18.144531 14.152344 C 18.414062 14.128906 18.683594 14.105469 18.960938 14.082031 C 19.273438 14.058594 19.273438 14.058594 19.59375 14.035156 C 18.773438 14.863281 17.964844 15.625 16.980469 16.265625 C 16.765625 16.265625 16.546875 16.265625 16.328125 16.265625 C 16.328125 16.058594 16.328125 15.847656 16.328125 15.628906 C 16.035156 15.648438 15.746094 15.667969 15.449219 15.6875 C 14.238281 15.621094 13.667969 15.421875 12.734375 14.671875 C 12.734375 14.25 12.734375 13.832031 12.734375 13.398438 Z M 12.734375 13.398438 "/>
<path style=" stroke:none;fill-rule:nonzero;fill:rgb(33.725491%,77.254903%,84.313726%);fill-opacity:1;" d="M 2.9375 8.613281 C 7.464844 8.613281 11.988281 8.613281 16.652344 8.613281 C 16.867188 9.136719 17.085938 9.664062 17.304688 10.207031 C 16.855469 10.945312 16.855469 10.945312 16.328125 11.484375 C 16.003906 11.378906 15.679688 11.273438 15.347656 11.164062 C 15.671875 10.425781 15.992188 9.691406 16.328125 8.929688 C 11.910156 8.929688 7.492188 8.929688 2.9375 8.929688 C 2.9375 8.824219 2.9375 8.71875 2.9375 8.613281 Z M 2.9375 8.613281 "/>
<path style=" stroke:none;fill-rule:nonzero;fill:rgb(40.392157%,66.666669%,79.607844%);fill-opacity:1;" d="M 28.082031 10.527344 C 28.296875 10.839844 28.511719 11.15625 28.734375 11.484375 C 28.144531 12.300781 27.554688 13.058594 26.777344 13.714844 C 25.671875 13.695312 25.671875 13.695312 24.816406 13.398438 C 24.707031 13.082031 24.601562 12.765625 24.488281 12.441406 C 24.707031 12.125 24.921875 11.808594 25.144531 11.484375 C 25.796875 11.484375 26.449219 11.484375 27.101562 11.484375 C 27.714844 11.042969 27.714844 11.042969 28.082031 10.527344 Z M 28.082031 10.527344 "/>
<path style=" stroke:none;fill-rule:nonzero;fill:rgb(48.627451%,61.176473%,80.000001%);fill-opacity:1;" d="M 6.203125 16.585938 C 7.074219 16.585938 7.945312 16.585938 8.816406 16.585938 C 8.816406 17.429688 8.816406 18.269531 8.816406 19.136719 C 8.601562 19.136719 8.386719 19.136719 8.164062 19.136719 C 8.164062 18.925781 8.164062 18.71875 8.164062 18.5 C 7.515625 18.605469 6.871094 18.710938 6.203125 18.820312 C 6.203125 18.082031 6.203125 17.34375 6.203125 16.585938 Z M 6.203125 16.585938 "/>
<path style=" stroke:none;fill-rule:nonzero;fill:rgb(52.549022%,73.333335%,81.960785%);fill-opacity:1;" d="M 9.46875 13.714844 C 11.34375 13.421875 12.378906 13.960938 13.875 14.960938 C 14.121094 15.132812 14.121094 15.132812 14.367188 15.308594 C 14.042969 15.785156 14.042969 15.785156 13.714844 16.265625 C 13.410156 16.050781 13.410156 16.050781 13.101562 15.828125 C 11.726562 15.128906 10.339844 14.917969 8.816406 14.671875 C 9.03125 14.355469 9.246094 14.039062 9.46875 13.714844 Z M 9.46875 13.714844 "/>
<path style=" stroke:none;fill-rule:nonzero;fill:rgb(49.411765%,61.56863%,76.862746%);fill-opacity:1;" d="M 24.488281 15.628906 C 25.027344 15.628906 25.566406 15.628906 26.121094 15.628906 C 26.140625 16.1875 26.152344 16.746094 26.164062 17.304688 C 26.171875 17.613281 26.179688 17.925781 26.1875 18.246094 C 26.121094 19.144531 25.941406 19.652344 25.46875 20.414062 C 24.84375 19.371094 24.699219 18.5 24.613281 17.304688 C 24.585938 16.988281 24.5625 16.675781 24.539062 16.351562 C 24.523438 16.113281 24.507812 15.875 24.488281 15.628906 Z M 24.488281 15.628906 "/>
<path style=" stroke:none;fill-rule:nonzero;fill:rgb(62.352943%,46.666667%,65.882355%);fill-opacity:1;" d="M 25.796875 22.648438 C 25.902344 22.648438 26.011719 22.648438 26.121094 22.648438 C 26.121094 23.804688 26.121094 24.960938 26.121094 26.15625 C 24.9375 26.15625 23.75 26.15625 22.53125 26.15625 C 22.636719 25.839844 22.746094 25.523438 22.855469 25.199219 C 23.402344 25.183594 23.945312 25.183594 24.488281 25.199219 C 24.597656 25.304688 24.707031 25.410156 24.816406 25.515625 C 25.140625 24.570312 25.460938 23.621094 25.796875 22.648438 Z M 25.796875 22.648438 "/>
<path style=" stroke:none;fill-rule:nonzero;fill:rgb(98.431373%,95.294118%,98.823529%);fill-opacity:1;" d="M 15.019531 20.414062 C 15.128906 20.414062 15.234375 20.414062 15.347656 20.414062 C 15.347656 22.308594 15.347656 24.203125 15.347656 26.15625 C 14.367188 25.199219 14.367188 25.199219 14.285156 24.082031 C 14.367188 22.964844 14.367188 22.964844 14.695312 22.007812 C 14.378906 21.871094 14.378906 21.871094 14.0625 21.730469 C 13.386719 21.371094 13.386719 21.371094 13.0625 20.734375 C 13.707031 20.941406 14.355469 21.152344 15.019531 21.371094 C 15.019531 21.054688 15.019531 20.738281 15.019531 20.414062 Z M 15.019531 20.414062 "/>
<path style=" stroke:none;fill-rule:nonzero;fill:rgb(76.078433%,36.078432%,63.137257%);fill-opacity:1;" d="M 2.9375 26.792969 C 2.980469 26.984375 3.019531 27.175781 3.0625 27.371094 C 3.25 28.152344 3.25 28.152344 3.917969 29.027344 C 2.039062 29.664062 2.039062 29.664062 1.304688 29.664062 C 1.199219 29.980469 1.089844 30.296875 0.980469 30.621094 C 1.164062 29.101562 1.824219 27.882812 2.9375 26.792969 Z M 2.9375 26.792969 "/>
<path style=" stroke:none;fill-rule:nonzero;fill:rgb(56.862748%,32.549021%,54.509807%);fill-opacity:1;" d="M 8.488281 24.878906 C 10.183594 24.8125 11.46875 25.007812 13.0625 25.515625 C 13.0625 25.726562 13.0625 25.9375 13.0625 26.15625 C 13.382812 26.261719 13.707031 26.367188 14.039062 26.472656 C 13.609375 26.578125 13.179688 26.683594 12.734375 26.792969 C 12.734375 26.582031 12.734375 26.371094 12.734375 26.15625 C 12.550781 26.21875 12.367188 26.285156 12.179688 26.351562 C 11.210938 26.507812 10.753906 26.269531 9.878906 25.855469 C 9.617188 25.734375 9.355469 25.613281 9.085938 25.488281 C 8.890625 25.394531 8.691406 25.296875 8.488281 25.199219 C 8.488281 25.09375 8.488281 24.988281 8.488281 24.878906 Z M 8.488281 24.878906 "/>
<path style=" stroke:none;fill-rule:nonzero;fill:rgb(90.196079%,17.254902%,47.450981%);fill-opacity:1;" d="M 30.367188 31.578125 C 30.582031 31.578125 30.796875 31.578125 31.019531 31.578125 C 31.019531 32.628906 31.019531 33.683594 31.019531 34.765625 C 29.511719 34.765625 28.003906 34.765625 26.449219 34.765625 C 26.449219 34.660156 26.449219 34.558594 26.449219 34.449219 C 27.632812 34.449219 28.820312 34.449219 30.039062 34.449219 C 30.035156 34.09375 30.027344 33.738281 30.019531 33.371094 C 30.039062 32.214844 30.039062 32.214844 30.367188 31.578125 Z M 30.367188 31.578125 "/>
<path style=" stroke:none;fill-rule:nonzero;fill:rgb(56.078434%,71.372551%,82.745099%);fill-opacity:1;" d="M 24.164062 14.035156 C 23.949219 15.71875 23.730469 17.402344 23.511719 19.136719 C 23.402344 19.136719 23.292969 19.136719 23.183594 19.136719 C 23.183594 17.664062 23.183594 16.191406 23.183594 14.671875 C 22.320312 14.777344 21.460938 14.882812 20.570312 14.992188 C 20.570312 14.78125 20.570312 14.570312 20.570312 14.351562 C 22.695312 13.675781 22.695312 13.675781 24.164062 14.035156 Z M 24.164062 14.035156 "/>
<path style=" stroke:none;fill-rule:nonzero;fill:rgb(66.274512%,68.235296%,76.47059%);fill-opacity:1;" d="M 21.878906 17.222656 C 21.878906 17.539062 21.878906 17.855469 21.878906 18.179688 C 21.683594 18.242188 21.492188 18.304688 21.292969 18.367188 C 19.945312 18.800781 18.613281 19.238281 17.304688 19.777344 C 17.632812 18.820312 17.632812 18.820312 18.34375 18.375 C 18.636719 18.238281 18.925781 18.101562 19.222656 17.960938 C 19.511719 17.824219 19.800781 17.683594 20.097656 17.539062 C 20.898438 17.222656 20.898438 17.222656 21.878906 17.222656 Z M 21.878906 17.222656 "/>
<path style=" stroke:none;fill-rule:nonzero;fill:rgb(65.490198%,70.980394%,79.215688%);fill-opacity:1;" d="M 21.878906 15.949219 C 21.878906 16.160156 21.878906 16.371094 21.878906 16.585938 C 21.359375 16.792969 20.84375 17 20.328125 17.203125 C 20.039062 17.320312 19.75 17.433594 19.453125 17.550781 C 18.738281 17.816406 18.050781 18.019531 17.304688 18.179688 C 17.304688 17.96875 17.304688 17.761719 17.304688 17.542969 C 17.820312 17.273438 18.339844 17.007812 18.855469 16.746094 C 19.144531 16.597656 19.433594 16.449219 19.730469 16.296875 C 20.570312 15.949219 20.570312 15.949219 21.878906 15.949219 Z M 21.878906 15.949219 "/>
<path style=" stroke:none;fill-rule:nonzero;fill:rgb(70.588237%,42.745098%,62.352943%);fill-opacity:1;" d="M 22.203125 27.429688 C 25.113281 27.429688 28.023438 27.429688 31.019531 27.429688 C 31.019531 27.746094 31.019531 28.0625 31.019531 28.386719 C 30.839844 28.335938 30.664062 28.285156 30.476562 28.234375 C 29.621094 28.050781 28.820312 28 27.945312 27.96875 C 27.441406 27.949219 27.441406 27.949219 26.929688 27.925781 C 26.582031 27.914062 26.234375 27.902344 25.878906 27.890625 C 25.523438 27.875 25.171875 27.863281 24.808594 27.847656 C 23.941406 27.8125 23.074219 27.78125 22.203125 27.75 C 22.203125 27.644531 22.203125 27.539062 22.203125 27.429688 Z M 22.203125 27.429688 "/>
<path style=" stroke:none;fill-rule:nonzero;fill:rgb(59.607846%,40.392157%,61.960787%);fill-opacity:1;" d="M 7.511719 22.007812 C 7.617188 22.007812 7.726562 22.007812 7.835938 22.007812 C 7.835938 22.851562 7.835938 23.691406 7.835938 24.558594 C 8.140625 24.609375 8.140625 24.609375 8.449219 24.660156 C 9.144531 24.878906 9.144531 24.878906 9.796875 25.835938 C 8.855469 25.875 8.855469 25.875 7.835938 25.835938 C 7.621094 25.625 7.40625 25.414062 7.183594 25.199219 C 7.191406 24.4375 7.191406 24.4375 7.304688 23.5625 C 7.34375 23.273438 7.378906 22.984375 7.414062 22.683594 C 7.445312 22.460938 7.476562 22.238281 7.511719 22.007812 Z M 7.511719 22.007812 "/>
<path style=" stroke:none;fill-rule:nonzero;fill:rgb(67.843139%,52.156866%,67.843139%);fill-opacity:1;" d="M 8.816406 23.921875 C 10.9375 24.058594 12.515625 24.851562 14.367188 25.835938 C 13.9375 25.941406 13.503906 26.046875 13.0625 26.15625 C 13.0625 25.945312 13.0625 25.734375 13.0625 25.515625 C 12.722656 25.484375 12.386719 25.453125 12.039062 25.417969 C 10.792969 25.199219 9.914062 24.84375 8.816406 24.242188 C 8.816406 24.136719 8.816406 24.03125 8.816406 23.921875 Z M 8.816406 23.921875 "/>
<path style=" stroke:none;fill-rule:nonzero;fill:rgb(65.098041%,45.09804%,70.19608%);fill-opacity:1;" d="M 7.183594 23.285156 C 7.148438 23.757812 7.105469 24.226562 7.0625 24.699219 C 7.039062 24.960938 7.015625 25.226562 6.992188 25.496094 C 6.949219 25.714844 6.902344 25.929688 6.855469 26.15625 C 6.535156 26.3125 6.535156 26.3125 6.203125 26.472656 C 5.878906 25.835938 5.550781 25.199219 5.222656 24.558594 C 6.449219 23.285156 6.449219 23.285156 7.183594 23.285156 Z M 7.183594 23.285156 "/>
<path style=" stroke:none;fill-rule:nonzero;fill:rgb(68.235296%,67.843139%,74.901962%);fill-opacity:1;" d="M 21.878906 18.820312 C 21.878906 19.03125 21.878906 19.238281 21.878906 19.457031 C 21.472656 19.59375 21.070312 19.734375 20.652344 19.875 C 19.609375 20.253906 18.828125 20.683594 17.960938 21.371094 C 17.742188 21.371094 17.527344 21.371094 17.304688 21.371094 C 17.753906 20.296875 18.15625 19.875 19.222656 19.378906 C 19.445312 19.269531 19.667969 19.164062 19.894531 19.054688 C 20.570312 18.820312 20.570312 18.820312 21.878906 18.820312 Z M 21.878906 18.820312 "/>
<path style=" stroke:none;fill-rule:nonzero;fill:rgb(92.156863%,96.470588%,98.431373%);fill-opacity:1;" d="M 22.855469 14.992188 C 22.535156 15.148438 22.535156 15.148438 22.203125 15.308594 C 22.203125 16.257812 22.203125 17.203125 22.203125 18.179688 C 22.097656 17.867188 21.988281 17.550781 21.878906 17.222656 C 21.660156 17.222656 21.445312 17.222656 21.222656 17.222656 C 21.222656 17.011719 21.222656 16.804688 21.222656 16.585938 C 21.441406 16.585938 21.65625 16.585938 21.878906 16.585938 C 21.878906 16.375 21.878906 16.164062 21.878906 15.949219 C 21.230469 16.054688 20.585938 16.160156 19.917969 16.265625 C 19.917969 15.953125 19.917969 15.636719 19.917969 15.308594 C 20.921875 15.019531 21.8125 14.964844 22.855469 14.992188 Z M 22.855469 14.992188 "/>
<path style=" stroke:none;fill-rule:nonzero;fill:rgb(73.333335%,69.01961%,75.294119%);fill-opacity:1;" d="M 21.878906 21.691406 C 21.878906 21.898438 21.878906 22.109375 21.878906 22.328125 C 18.804688 23.675781 18.804688 23.675781 17.304688 24.242188 C 17.632812 23.417969 17.847656 23.03125 18.632812 22.5625 C 18.886719 22.457031 19.144531 22.355469 19.40625 22.246094 C 19.664062 22.140625 19.917969 22.035156 20.183594 21.925781 C 20.898438 21.691406 20.898438 21.691406 21.878906 21.691406 Z M 21.878906 21.691406 "/>
<path style=" stroke:none;fill-rule:nonzero;fill:rgb(70.19608%,66.666669%,73.725492%);fill-opacity:1;" d="M 9.796875 20.09375 C 11.054688 20.289062 12.035156 20.660156 13.164062 21.230469 C 13.453125 21.375 13.738281 21.519531 14.035156 21.671875 C 14.253906 21.78125 14.46875 21.894531 14.695312 22.007812 C 14.695312 22.21875 14.695312 22.429688 14.695312 22.648438 C 12.996094 22.136719 11.40625 21.453125 9.796875 20.734375 C 9.796875 20.523438 9.796875 20.3125 9.796875 20.09375 Z M 9.796875 20.09375 "/>
<path style=" stroke:none;fill-rule:nonzero;fill:rgb(63.137257%,64.313728%,72.941178%);fill-opacity:1;" d="M 10.121094 17.542969 C 11.984375 17.691406 13.113281 18.160156 14.695312 19.136719 C 14.695312 19.347656 14.695312 19.558594 14.695312 19.777344 C 13.144531 19.191406 11.636719 18.527344 10.121094 17.863281 C 10.121094 17.757812 10.121094 17.652344 10.121094 17.542969 Z M 10.121094 17.542969 "/>
<path style=" stroke:none;fill-rule:nonzero;fill:rgb(62.7451%,66.666669%,74.901962%);fill-opacity:1;" d="M 10.121094 15.949219 C 11.867188 16.117188 13.179688 16.734375 14.695312 17.542969 C 14.695312 17.753906 14.695312 17.964844 14.695312 18.179688 C 13.636719 17.953125 12.671875 17.601562 11.671875 17.203125 C 11.382812 17.089844 11.089844 16.972656 10.789062 16.855469 C 10.460938 16.722656 10.460938 16.722656 10.121094 16.585938 C 10.121094 16.375 10.121094 16.164062 10.121094 15.949219 Z M 10.121094 15.949219 "/>
<path style=" stroke:none;fill-rule:nonzero;fill:rgb(63.529414%,32.549021%,54.509807%);fill-opacity:1;" d="M 18.285156 26.15625 C 18.394531 26.472656 18.5 26.785156 18.613281 27.113281 C 18.289062 27.21875 17.964844 27.324219 17.632812 27.429688 C 17.238281 28.070312 17.238281 28.070312 16.980469 28.707031 C 16.441406 28.601562 15.902344 28.496094 15.347656 28.386719 C 15.347656 28.175781 15.347656 27.96875 15.347656 27.75 C 15.589844 27.664062 15.832031 27.578125 16.082031 27.492188 C 16.9375 27.128906 17.566406 26.726562 18.285156 26.15625 Z M 18.285156 26.15625 "/>
<path style=" stroke:none;fill-rule:nonzero;fill:rgb(89.803922%,89.411765%,95.294118%);fill-opacity:1;" d="M 9.796875 18.820312 C 9.902344 19.03125 10.011719 19.238281 10.121094 19.457031 C 10.578125 19.515625 10.578125 19.515625 11.039062 19.578125 C 12.238281 19.804688 12.617188 20.15625 13.386719 21.050781 C 12.421875 21.050781 11.921875 20.910156 11.039062 20.574219 C 10.808594 20.484375 10.574219 20.394531 10.332031 20.304688 C 10.15625 20.234375 9.976562 20.164062 9.796875 20.09375 C 9.796875 19.671875 9.796875 19.253906 9.796875 18.820312 Z M 9.796875 18.820312 "/>
<path style=" stroke:none;fill-rule:nonzero;fill:rgb(64.313728%,63.529414%,71.764708%);fill-opacity:1;" d="M 10.121094 18.820312 C 11.652344 19.007812 13.089844 19.570312 14.367188 20.414062 C 14.476562 20.730469 14.582031 21.046875 14.695312 21.371094 C 13.8125 21.050781 13.027344 20.714844 12.222656 20.234375 C 11.5 19.816406 10.941406 19.605469 10.121094 19.457031 C 10.121094 19.246094 10.121094 19.035156 10.121094 18.820312 Z M 10.121094 18.820312 "/>
<path style=" stroke:none;fill-rule:nonzero;fill:rgb(61.176473%,60.392159%,76.862746%);fill-opacity:1;" d="M 7.835938 18.5 C 7.945312 18.710938 8.050781 18.921875 8.164062 19.136719 C 8.378906 19.136719 8.59375 19.136719 8.816406 19.136719 C 8.816406 20.71875 8.816406 22.296875 8.816406 23.921875 C 8.601562 24.027344 8.386719 24.132812 8.164062 24.242188 C 8.167969 24.019531 8.171875 23.796875 8.175781 23.566406 C 8.175781 23.277344 8.179688 22.984375 8.183594 22.6875 C 8.1875 22.398438 8.191406 22.109375 8.195312 21.8125 C 8.214844 21.046875 8.214844 21.046875 7.835938 20.414062 C 7.824219 19.777344 7.824219 19.136719 7.835938 18.5 Z M 7.835938 18.5 "/>
<path style=" stroke:none;fill-rule:nonzero;fill:rgb(59.607846%,35.686275%,52.941179%);fill-opacity:1;" d="M 2.9375 25.515625 C 3.183594 26.054688 3.183594 26.054688 3.265625 26.792969 C 2.601562 27.742188 1.832031 28.554688 0.980469 29.34375 C 0.847656 28.222656 0.9375 27.8125 1.59375 26.851562 C 1.933594 26.507812 1.933594 26.507812 2.285156 26.15625 C 2.5 26.15625 2.714844 26.15625 2.9375 26.15625 C 2.9375 25.945312 2.9375 25.734375 2.9375 25.515625 Z M 2.9375 25.515625 "/>
<path style=" stroke:none;fill-rule:nonzero;fill:rgb(70.588237%,66.666669%,72.549021%);fill-opacity:1;" d="M 9.796875 21.691406 C 11.707031 21.832031 13.089844 22.660156 14.695312 23.601562 C 14.695312 23.8125 14.695312 24.023438 14.695312 24.242188 C 13.539062 23.804688 12.433594 23.3125 11.328125 22.765625 C 11.039062 22.625 10.75 22.480469 10.453125 22.335938 C 10.234375 22.226562 10.019531 22.121094 9.796875 22.007812 C 9.796875 21.902344 9.796875 21.796875 9.796875 21.691406 Z M 9.796875 21.691406 "/>
<path style=" stroke:none;fill-rule:nonzero;fill:rgb(41.176471%,56.470591%,67.450982%);fill-opacity:1;" d="M 7.511719 13.398438 C 7.617188 13.398438 7.726562 13.398438 7.835938 13.398438 C 7.835938 14.34375 7.835938 15.292969 7.835938 16.265625 C 7.296875 16.371094 6.757812 16.476562 6.203125 16.585938 C 6.097656 17.007812 5.988281 17.429688 5.878906 17.863281 C 5.878906 17.019531 5.878906 16.179688 5.878906 15.308594 C 6.417969 15.308594 6.957031 15.308594 7.511719 15.308594 C 7.511719 14.679688 7.511719 14.046875 7.511719 13.398438 Z M 7.511719 13.398438 "/>
<path style=" stroke:none;fill-rule:nonzero;fill:rgb(71.764708%,38.431373%,63.921571%);fill-opacity:1;" d="M 20.246094 27.113281 C 20.136719 27.21875 20.03125 27.324219 19.917969 27.429688 C 20.671875 27.535156 21.425781 27.640625 22.203125 27.75 C 22.203125 27.855469 22.203125 27.960938 22.203125 28.070312 C 20.804688 28.070312 19.402344 28.070312 17.960938 28.070312 C 17.851562 27.859375 17.742188 27.648438 17.632812 27.429688 C 19.144531 26.753906 19.144531 26.753906 20.246094 27.113281 Z M 20.246094 27.113281 "/>
<path style=" stroke:none;fill-rule:nonzero;fill:rgb(81.568629%,76.862746%,83.92157%);fill-opacity:1;" d="M 19.59375 21.371094 C 19.59375 21.792969 19.59375 22.210938 19.59375 22.648438 C 18.835938 22.75 18.082031 22.855469 17.304688 22.964844 C 17.304688 22.648438 17.304688 22.332031 17.304688 22.007812 C 18.171875 21.542969 18.578125 21.371094 19.59375 21.371094 Z M 19.59375 21.371094 "/>
<path style=" stroke:none;fill-rule:nonzero;fill:rgb(32.549021%,57.647061%,67.450982%);fill-opacity:1;" d="M 30.039062 8.292969 C 30.148438 8.503906 30.257812 8.714844 30.367188 8.929688 C 30.582031 9.035156 30.796875 9.140625 31.019531 9.25 C 30.265625 9.882812 29.511719 10.511719 28.734375 11.164062 C 29.035156 9.996094 29.390625 9.289062 30.039062 8.292969 Z M 30.039062 8.292969 "/>
<path style=" stroke:none;fill-rule:nonzero;fill:rgb(57.254905%,69.01961%,80.392158%);fill-opacity:1;" d="M 12.082031 14.351562 C 12.742188 14.546875 13.394531 14.757812 14.039062 14.992188 C 14.148438 15.203125 14.257812 15.414062 14.367188 15.628906 C 14.152344 15.839844 13.9375 16.050781 13.714844 16.265625 C 13.066406 15.847656 12.421875 15.425781 11.753906 14.992188 C 11.863281 14.78125 11.96875 14.570312 12.082031 14.351562 Z M 12.082031 14.351562 "/>
<path style=" stroke:none;fill-rule:nonzero;fill:rgb(47.058824%,65.882355%,79.607844%);fill-opacity:1;" d="M 12.734375 13.398438 C 13.164062 13.398438 13.597656 13.398438 14.039062 13.398438 C 14.695312 14.59375 14.695312 14.59375 14.695312 15.308594 C 14.046875 15.101562 13.402344 14.890625 12.734375 14.671875 C 12.734375 14.25 12.734375 13.832031 12.734375 13.398438 Z M 12.734375 13.398438 "/>
<path style=" stroke:none;fill-rule:nonzero;fill:rgb(32.549021%,49.411765%,56.470591%);fill-opacity:1;" d="M 14.039062 11.484375 C 14.039062 12.386719 13.910156 13.152344 13.714844 14.035156 C 13.605469 13.824219 13.5 13.613281 13.386719 13.398438 C 13.171875 13.398438 12.957031 13.398438 12.734375 13.398438 C 12.734375 13.710938 12.734375 14.027344 12.734375 14.351562 C 12.410156 14.25 12.089844 14.144531 11.753906 14.035156 C 11.96875 13.929688 12.1875 13.824219 12.40625 13.714844 C 12.40625 13.503906 12.40625 13.292969 12.40625 13.078125 C 12.625 13.078125 12.839844 13.078125 13.0625 13.078125 C 13.164062 12.875 13.261719 12.667969 13.367188 12.460938 C 13.714844 11.800781 13.714844 11.800781 14.039062 11.484375 Z M 14.039062 11.484375 "/>
<path style=" stroke:none;fill-rule:nonzero;fill:rgb(51.764709%,36.078432%,52.549022%);fill-opacity:1;" d="M 5.550781 23.285156 C 5.660156 23.496094 5.765625 23.707031 5.878906 23.921875 C 5.320312 24.808594 5.070312 25.152344 4.019531 25.4375 C 3.648438 25.476562 3.648438 25.476562 3.265625 25.515625 C 4.816406 23.644531 4.816406 23.644531 5.550781 23.285156 Z M 5.550781 23.285156 "/>
<path style=" stroke:none;fill-rule:nonzero;fill:rgb(84.313726%,89.803922%,95.294118%);fill-opacity:1;" d="M 14.367188 16.265625 C 14.582031 16.371094 14.796875 16.476562 15.019531 16.585938 C 14.914062 16.796875 14.804688 17.007812 14.695312 17.222656 C 12.816406 16.984375 12.816406 16.984375 12.082031 16.265625 C 12.960938 15.839844 13.433594 16.039062 14.367188 16.265625 Z M 14.367188 16.265625 "/>
<path style=" stroke:none;fill-rule:nonzero;fill:rgb(52.941179%,66.666669%,79.215688%);fill-opacity:1;" d="M 8.488281 16.585938 C 8.597656 16.585938 8.707031 16.585938 8.816406 16.585938 C 8.816406 17.429688 8.816406 18.269531 8.816406 19.136719 C 8.601562 19.136719 8.386719 19.136719 8.164062 19.136719 C 7.960938 18.222656 7.960938 18.222656 7.835938 17.222656 C 8.050781 17.011719 8.269531 16.804688 8.488281 16.585938 Z M 8.488281 16.585938 "/>
<path style=" stroke:none;fill-rule:nonzero;fill:rgb(43.529412%,68.235296%,79.607844%);fill-opacity:1;" d="M 15.019531 10.527344 C 15.234375 10.527344 15.453125 10.527344 15.671875 10.527344 C 15.304688 11.472656 14.949219 12.226562 14.367188 13.078125 C 14.152344 13.078125 13.9375 13.078125 13.714844 13.078125 C 14.285156 11.242188 14.285156 11.242188 15.019531 10.527344 Z M 15.019531 10.527344 "/>
<path style=" stroke:none;fill-rule:nonzero;fill:rgb(39.215687%,74.509805%,83.529413%);fill-opacity:1;" d="M 16 9.570312 C 16.429688 9.675781 16.863281 9.78125 17.304688 9.886719 C 16.820312 10.675781 16.820312 10.675781 16.328125 11.484375 C 16.003906 11.378906 15.679688 11.273438 15.347656 11.164062 C 15.5625 10.636719 15.777344 10.109375 16 9.570312 Z M 16 9.570312 "/>
<path style=" stroke:none;fill-rule:nonzero;fill:rgb(86.666667%,88.627452%,95.294118%);fill-opacity:1;" d="M 22.203125 18.5 C 22.097656 18.816406 21.988281 19.132812 21.878906 19.457031 C 21.878906 19.246094 21.878906 19.035156 21.878906 18.820312 C 21.125 19.03125 20.367188 19.238281 19.59375 19.457031 C 19.375 19.246094 19.160156 19.035156 18.9375 18.820312 C 20.171875 18.234375 20.878906 18.128906 22.203125 18.5 Z M 22.203125 18.5 "/>
<path style=" stroke:none;fill-rule:nonzero;fill:rgb(36.862746%,58.823532%,65.882355%);fill-opacity:1;" d="M 28.082031 10.527344 C 28.296875 10.839844 28.511719 11.15625 28.734375 11.484375 C 28.304688 11.902344 27.871094 12.324219 27.429688 12.757812 C 27.203125 12.179688 27.203125 12.179688 27.101562 11.484375 C 27.570312 10.925781 27.570312 10.925781 28.082031 10.527344 Z M 28.082031 10.527344 "/>
<path style=" stroke:none;fill-rule:nonzero;fill:rgb(35.294119%,75.686276%,84.705883%);fill-opacity:1;" d="M 28.40625 8.929688 C 28.730469 8.929688 29.054688 8.929688 29.386719 8.929688 C 29.1875 9.875 28.976562 10.328125 28.40625 11.164062 C 28.285156 10.527344 28.175781 9.890625 28.082031 9.25 C 28.1875 9.144531 28.296875 9.039062 28.40625 8.929688 Z M 28.40625 8.929688 "/>
<path style=" stroke:none;fill-rule:nonzero;fill:rgb(60.784316%,34.117648%,55.29412%);fill-opacity:1;" d="M 20.246094 26.792969 C 21.101562 26.734375 21.101562 26.734375 21.878906 26.792969 C 21.984375 27.109375 22.09375 27.425781 22.203125 27.75 C 21.34375 27.75 20.480469 27.75 19.59375 27.75 C 19.808594 27.433594 20.023438 27.117188 20.246094 26.792969 Z M 20.246094 26.792969 "/>
<path style=" stroke:none;fill-rule:nonzero;fill:rgb(61.56863%,48.627451%,72.941178%);fill-opacity:1;" d="M 6.203125 21.691406 C 6.527344 21.792969 6.851562 21.898438 7.183594 22.007812 C 7.183594 22.429688 7.183594 22.851562 7.183594 23.285156 C 6.753906 23.390625 6.320312 23.496094 5.878906 23.601562 C 5.984375 22.972656 6.09375 22.339844 6.203125 21.691406 Z M 6.203125 21.691406 "/>
<path style=" stroke:none;fill-rule:nonzero;fill:rgb(85.882354%,87.450981%,94.509804%);fill-opacity:1;" d="M 10.777344 18.179688 C 11.757812 18.304688 12.210938 18.585938 13.0625 19.136719 C 12.152344 19.46875 11.796875 19.472656 10.855469 19.15625 C 10.613281 19.046875 10.371094 18.933594 10.121094 18.820312 C 10.339844 18.609375 10.554688 18.398438 10.777344 18.179688 Z M 10.777344 18.179688 "/>
<path style=" stroke:none;fill-rule:nonzero;fill:rgb(33.333334%,52.549022%,59.215689%);fill-opacity:1;" d="M 8.816406 13.078125 C 9.785156 13.183594 10.757812 13.289062 11.753906 13.398438 C 11.753906 13.5 11.753906 13.605469 11.753906 13.714844 C 11.511719 13.761719 11.269531 13.808594 11.019531 13.855469 C 10.277344 14.003906 9.546875 14.167969 8.816406 14.351562 C 8.816406 13.933594 8.816406 13.511719 8.816406 13.078125 Z M 8.816406 13.078125 "/>
</g>
</svg>
