<svg width="20" height="20" viewBox="0 0 20 20" xmlns="http://www.w3.org/2000/svg">
  <path d="M19.6 10.23C19.6 9.55 19.54 8.9 19.43 8.27H10V12.04H15.44C15.22 13.24 14.54 14.23 13.49 14.9V17.36H16.66C18.56 15.59 19.6 13.15 19.6 10.23Z" fill="#4285F4"></path>
  <path d="M10 20C12.7 20 14.93 19.1 16.66 17.36L13.49 14.9C12.55 15.54 11.36 15.93 10 15.93C7.39 15.93 5.17 14.13 4.38 11.77H1.1V14.32C2.82 17.48 6.12 20 10 20Z" fill="#34A853"></path>
  <path d="M4.38 11.77C4.18 11.13 4.06 10.47 4.06 9.79C4.06 9.11 4.18 8.45 4.38 7.81V5.26H1.1C0.4 6.63 0 8.17 0 9.79C0 11.41 0.4 12.95 1.1 14.32L4.38 11.77Z" fill="#FBBC05"></path>
  <path d="M10 3.86C11.46 3.86 12.76 4.36 13.81 5.36L16.73 2.44C14.93 0.77 12.7 0 10 0C6.12 0 2.82 2.52 1.1 5.68L4.38 8.23C5.17 5.87 7.39 3.86 10 3.86Z" fill="#EA4335"></path>
</svg>
